<mxfile host="app.diagrams.net" agent="Mozilla/5.0 (Windows NT 10.0; Win64; x64) AppleWebKit/537.36 (KHTML, like Gecko) Chrome/132.0.0.0 Safari/537.36" version="26.0.13">
  <diagram name="Страница — 1" id="_v5LaGTC0-DqnQ5YdJLc">
    <mxGraphModel dx="2336" dy="821" grid="1" gridSize="10" guides="1" tooltips="1" connect="1" arrows="1" fold="1" page="1" pageScale="1" pageWidth="827" pageHeight="1169" math="0" shadow="0">
      <root>
        <mxCell id="0" />
        <mxCell id="1" parent="0" />
        <mxCell id="yWEKpOkfy3Jw7eenvQe8-1" value="Движок" style="shape=umlActor;verticalLabelPosition=bottom;verticalAlign=top;html=1;outlineConnect=0;" parent="1" vertex="1">
          <mxGeometry x="399" y="270" width="30" height="60" as="geometry" />
        </mxCell>
        <mxCell id="yWEKpOkfy3Jw7eenvQe8-7" value="" style="edgeStyle=orthogonalEdgeStyle;rounded=0;orthogonalLoop=1;jettySize=auto;html=1;" parent="1" source="yWEKpOkfy3Jw7eenvQe8-2" target="yWEKpOkfy3Jw7eenvQe8-1" edge="1">
          <mxGeometry relative="1" as="geometry">
            <mxPoint x="245" y="300" as="targetPoint" />
          </mxGeometry>
        </mxCell>
        <mxCell id="yWEKpOkfy3Jw7eenvQe8-10" value="" style="edgeStyle=orthogonalEdgeStyle;rounded=0;orthogonalLoop=1;jettySize=auto;html=1;" parent="1" source="yWEKpOkfy3Jw7eenvQe8-2" target="yWEKpOkfy3Jw7eenvQe8-9" edge="1">
          <mxGeometry relative="1" as="geometry">
            <Array as="points">
              <mxPoint x="195" y="360" />
              <mxPoint x="230" y="360" />
            </Array>
          </mxGeometry>
        </mxCell>
        <mxCell id="yWEKpOkfy3Jw7eenvQe8-2" value="Частотник" style="shape=umlActor;verticalLabelPosition=bottom;verticalAlign=top;html=1;outlineConnect=0;" parent="1" vertex="1">
          <mxGeometry x="180" y="270" width="30" height="60" as="geometry" />
        </mxCell>
        <mxCell id="yWEKpOkfy3Jw7eenvQe8-4" value="Реест\текущих\новых состояний частотников" style="shape=cylinder3;whiteSpace=wrap;html=1;boundedLbl=1;backgroundOutline=1;size=15;" parent="1" vertex="1">
          <mxGeometry x="220" y="490" width="150" height="70" as="geometry" />
        </mxCell>
        <mxCell id="yWEKpOkfy3Jw7eenvQe8-11" value="" style="edgeStyle=orthogonalEdgeStyle;rounded=0;orthogonalLoop=1;jettySize=auto;html=1;" parent="1" source="yWEKpOkfy3Jw7eenvQe8-9" target="yWEKpOkfy3Jw7eenvQe8-4" edge="1">
          <mxGeometry relative="1" as="geometry" />
        </mxCell>
        <mxCell id="yWEKpOkfy3Jw7eenvQe8-9" value="SQL запрос" style="rounded=0;whiteSpace=wrap;html=1;" parent="1" vertex="1">
          <mxGeometry x="170" y="390" width="120" height="60" as="geometry" />
        </mxCell>
        <mxCell id="yWEKpOkfy3Jw7eenvQe8-12" value="Реестр отработанных часов" style="swimlane;fontStyle=0;childLayout=stackLayout;horizontal=1;startSize=30;horizontalStack=0;resizeParent=1;resizeParentMax=0;resizeLast=0;collapsible=1;marginBottom=0;whiteSpace=wrap;html=1;" parent="1" vertex="1">
          <mxGeometry x="480" y="625" width="140" height="90" as="geometry" />
        </mxCell>
        <mxCell id="yWEKpOkfy3Jw7eenvQe8-13" value="id движка" style="text;strokeColor=none;fillColor=none;align=left;verticalAlign=middle;spacingLeft=4;spacingRight=4;overflow=hidden;points=[[0,0.5],[1,0.5]];portConstraint=eastwest;rotatable=0;whiteSpace=wrap;html=1;" parent="yWEKpOkfy3Jw7eenvQe8-12" vertex="1">
          <mxGeometry y="30" width="140" height="30" as="geometry" />
        </mxCell>
        <mxCell id="yWEKpOkfy3Jw7eenvQe8-30" value="Мото часы" style="text;strokeColor=none;fillColor=none;align=left;verticalAlign=middle;spacingLeft=4;spacingRight=4;overflow=hidden;points=[[0,0.5],[1,0.5]];portConstraint=eastwest;rotatable=0;whiteSpace=wrap;html=1;" parent="yWEKpOkfy3Jw7eenvQe8-12" vertex="1">
          <mxGeometry y="60" width="140" height="30" as="geometry" />
        </mxCell>
        <mxCell id="yWEKpOkfy3Jw7eenvQe8-18" value="Анализатор переключения" style="shape=umlActor;verticalLabelPosition=bottom;verticalAlign=top;html=1;outlineConnect=0;" parent="1" vertex="1">
          <mxGeometry x="330" y="720" width="30" height="60" as="geometry" />
        </mxCell>
        <mxCell id="yWEKpOkfy3Jw7eenvQe8-28" value="Схема подключений частотников и движков" style="ellipse;whiteSpace=wrap;html=1;" parent="1" vertex="1">
          <mxGeometry x="140" y="820" width="110" height="80" as="geometry" />
        </mxCell>
        <mxCell id="zOdYqrqbQJjYuCrktWeD-7" value="" style="edgeStyle=orthogonalEdgeStyle;rounded=0;orthogonalLoop=1;jettySize=auto;html=1;" edge="1" parent="1" source="yWEKpOkfy3Jw7eenvQe8-29" target="zOdYqrqbQJjYuCrktWeD-6">
          <mxGeometry relative="1" as="geometry" />
        </mxCell>
        <mxCell id="yWEKpOkfy3Jw7eenvQe8-29" value="Физические формулы просчёта выходной мощности" style="ellipse;whiteSpace=wrap;html=1;" parent="1" vertex="1">
          <mxGeometry x="90" y="670" width="140" height="100" as="geometry" />
        </mxCell>
        <mxCell id="yWEKpOkfy3Jw7eenvQe8-33" value="" style="edgeStyle=orthogonalEdgeStyle;rounded=0;orthogonalLoop=1;jettySize=auto;html=1;" parent="1" source="yWEKpOkfy3Jw7eenvQe8-32" target="yWEKpOkfy3Jw7eenvQe8-4" edge="1">
          <mxGeometry relative="1" as="geometry" />
        </mxCell>
        <mxCell id="yWEKpOkfy3Jw7eenvQe8-32" value="обновление оптимального решения реестра" style="rounded=0;whiteSpace=wrap;html=1;" parent="1" vertex="1">
          <mxGeometry x="270" y="610" width="120" height="60" as="geometry" />
        </mxCell>
        <mxCell id="yWEKpOkfy3Jw7eenvQe8-34" value="Реестр тех обслуживания" style="swimlane;fontStyle=0;childLayout=stackLayout;horizontal=1;startSize=30;horizontalStack=0;resizeParent=1;resizeParentMax=0;resizeLast=0;collapsible=1;marginBottom=0;whiteSpace=wrap;html=1;" parent="1" vertex="1">
          <mxGeometry x="480" y="740" width="140" height="90" as="geometry">
            <mxRectangle x="600" y="750" width="180" height="30" as="alternateBounds" />
          </mxGeometry>
        </mxCell>
        <mxCell id="yWEKpOkfy3Jw7eenvQe8-35" value="id движка" style="text;strokeColor=none;fillColor=none;align=left;verticalAlign=middle;spacingLeft=4;spacingRight=4;overflow=hidden;points=[[0,0.5],[1,0.5]];portConstraint=eastwest;rotatable=0;whiteSpace=wrap;html=1;" parent="yWEKpOkfy3Jw7eenvQe8-34" vertex="1">
          <mxGeometry y="30" width="140" height="30" as="geometry" />
        </mxCell>
        <mxCell id="yWEKpOkfy3Jw7eenvQe8-36" value="Дата тех обслуживания" style="text;strokeColor=none;fillColor=none;align=left;verticalAlign=middle;spacingLeft=4;spacingRight=4;overflow=hidden;points=[[0,0.5],[1,0.5]];portConstraint=eastwest;rotatable=0;whiteSpace=wrap;html=1;" parent="yWEKpOkfy3Jw7eenvQe8-34" vertex="1">
          <mxGeometry y="60" width="140" height="30" as="geometry" />
        </mxCell>
        <mxCell id="zOdYqrqbQJjYuCrktWeD-6" value="Частотник" style="shape=umlActor;verticalLabelPosition=bottom;verticalAlign=top;html=1;outlineConnect=0;" vertex="1" parent="1">
          <mxGeometry x="-180" y="640" width="30" height="60" as="geometry" />
        </mxCell>
        <mxCell id="zOdYqrqbQJjYuCrktWeD-20" value="" style="edgeStyle=orthogonalEdgeStyle;rounded=0;orthogonalLoop=1;jettySize=auto;html=1;" edge="1" parent="1" source="zOdYqrqbQJjYuCrktWeD-10" target="zOdYqrqbQJjYuCrktWeD-6">
          <mxGeometry relative="1" as="geometry" />
        </mxCell>
        <mxCell id="zOdYqrqbQJjYuCrktWeD-10" value="входные данные" style="swimlane;fontStyle=0;childLayout=stackLayout;horizontal=1;startSize=40;fillColor=none;horizontalStack=0;resizeParent=1;resizeParentMax=0;resizeLast=0;collapsible=1;marginBottom=0;whiteSpace=wrap;html=1;" vertex="1" parent="1">
          <mxGeometry x="-235" y="460" width="140" height="130" as="geometry" />
        </mxCell>
        <mxCell id="zOdYqrqbQJjYuCrktWeD-11" value="напрежение сети" style="text;strokeColor=none;fillColor=none;align=left;verticalAlign=top;spacingLeft=4;spacingRight=4;overflow=hidden;rotatable=0;points=[[0,0.5],[1,0.5]];portConstraint=eastwest;whiteSpace=wrap;html=1;" vertex="1" parent="zOdYqrqbQJjYuCrktWeD-10">
          <mxGeometry y="40" width="140" height="26" as="geometry" />
        </mxCell>
        <mxCell id="zOdYqrqbQJjYuCrktWeD-12" value="частота сети" style="text;strokeColor=none;fillColor=none;align=left;verticalAlign=top;spacingLeft=4;spacingRight=4;overflow=hidden;rotatable=0;points=[[0,0.5],[1,0.5]];portConstraint=eastwest;whiteSpace=wrap;html=1;" vertex="1" parent="zOdYqrqbQJjYuCrktWeD-10">
          <mxGeometry y="66" width="140" height="26" as="geometry" />
        </mxCell>
        <mxCell id="zOdYqrqbQJjYuCrktWeD-13" value="параметр изменения частоты" style="text;strokeColor=none;fillColor=none;align=left;verticalAlign=top;spacingLeft=4;spacingRight=4;overflow=hidden;rotatable=0;points=[[0,0.5],[1,0.5]];portConstraint=eastwest;whiteSpace=wrap;html=1;" vertex="1" parent="zOdYqrqbQJjYuCrktWeD-10">
          <mxGeometry y="92" width="140" height="38" as="geometry" />
        </mxCell>
        <mxCell id="zOdYqrqbQJjYuCrktWeD-27" value="" style="edgeStyle=orthogonalEdgeStyle;rounded=0;orthogonalLoop=1;jettySize=auto;html=1;" edge="1" parent="1" source="zOdYqrqbQJjYuCrktWeD-23" target="zOdYqrqbQJjYuCrktWeD-6">
          <mxGeometry relative="1" as="geometry" />
        </mxCell>
        <mxCell id="zOdYqrqbQJjYuCrktWeD-23" value="выходные данные" style="swimlane;fontStyle=0;childLayout=stackLayout;horizontal=1;startSize=30;horizontalStack=0;resizeParent=1;resizeParentMax=0;resizeLast=0;collapsible=1;marginBottom=0;whiteSpace=wrap;html=1;" vertex="1" parent="1">
          <mxGeometry x="-400" y="610" width="140" height="120" as="geometry" />
        </mxCell>
        <mxCell id="zOdYqrqbQJjYuCrktWeD-24" value="Выходное напряжение" style="text;strokeColor=none;fillColor=none;align=left;verticalAlign=middle;spacingLeft=4;spacingRight=4;overflow=hidden;points=[[0,0.5],[1,0.5]];portConstraint=eastwest;rotatable=0;whiteSpace=wrap;html=1;" vertex="1" parent="zOdYqrqbQJjYuCrktWeD-23">
          <mxGeometry y="30" width="140" height="30" as="geometry" />
        </mxCell>
        <mxCell id="zOdYqrqbQJjYuCrktWeD-25" value="Выходная частота" style="text;strokeColor=none;fillColor=none;align=left;verticalAlign=middle;spacingLeft=4;spacingRight=4;overflow=hidden;points=[[0,0.5],[1,0.5]];portConstraint=eastwest;rotatable=0;whiteSpace=wrap;html=1;" vertex="1" parent="zOdYqrqbQJjYuCrktWeD-23">
          <mxGeometry y="60" width="140" height="30" as="geometry" />
        </mxCell>
        <mxCell id="zOdYqrqbQJjYuCrktWeD-26" value="Выходной ток" style="text;strokeColor=none;fillColor=none;align=left;verticalAlign=middle;spacingLeft=4;spacingRight=4;overflow=hidden;points=[[0,0.5],[1,0.5]];portConstraint=eastwest;rotatable=0;whiteSpace=wrap;html=1;" vertex="1" parent="zOdYqrqbQJjYuCrktWeD-23">
          <mxGeometry y="90" width="140" height="30" as="geometry" />
        </mxCell>
        <mxCell id="zOdYqrqbQJjYuCrktWeD-28" value="&lt;h1 style=&quot;margin-top: 0px;&quot;&gt;ТЗ Дерики&lt;/h1&gt;&lt;p&gt;Задание:&lt;/p&gt;&lt;p&gt;Есть несколько таблиц данных:&lt;/p&gt;&lt;p&gt;1) схема соединения частотников и движков, которая может меняться со временем&amp;nbsp;&lt;/p&gt;&lt;p&gt;2) таблица режимов работы каждого из частотников таблица выхода движков из строя,&amp;nbsp;&lt;/p&gt;&lt;p&gt;3) таблица тех обслуживания движков&amp;nbsp;&lt;/p&gt;&lt;p&gt;4) таблица наработанных часов движком при изменении топологии частотников и движков&amp;nbsp;&lt;/p&gt;&lt;p&gt;Необходимо предлагать оптимальное решение при&amp;nbsp; выходе движка из строя&lt;/p&gt;&lt;p&gt;Надо выбирать оптимальное решение топологии и режима частотников&lt;/p&gt;" style="text;html=1;whiteSpace=wrap;overflow=hidden;rounded=0;" vertex="1" parent="1">
          <mxGeometry x="-390" y="60" width="590" height="260" as="geometry" />
        </mxCell>
        <mxCell id="zOdYqrqbQJjYuCrktWeD-31" value="&lt;b&gt;Методы оптимизации с учетом ограничений&lt;/b&gt;&lt;div&gt;&lt;div style=&quot;&quot;&gt;&lt;b style=&quot;background-color: transparent; color: light-dark(rgb(0, 0, 0), rgb(255, 255, 255)); text-wrap-mode: nowrap;&quot;&gt;1. Линейное программирование (LP)&lt;/b&gt;&lt;/div&gt;&lt;span style=&quot;text-wrap-mode: nowrap; background-color: transparent; color: light-dark(rgb(0, 0, 0), rgb(255, 255, 255));&quot;&gt;&lt;div style=&quot;text-align: left;&quot;&gt;&lt;span style=&quot;background-color: transparent; color: light-dark(rgb(0, 0, 0), rgb(255, 255, 255));&quot;&gt;оптимизация количество частотников&amp;nbsp; и движков&lt;/span&gt;&lt;/div&gt;&lt;div style=&quot;&quot;&gt;&lt;b style=&quot;background-color: transparent; color: light-dark(rgb(0, 0, 0), rgb(255, 255, 255));&quot;&gt;&lt;strong style=&quot;color: light-dark(rgb(0, 0, 0), rgb(255, 255, 255));&quot; data-end=&quot;3285&quot; data-start=&quot;3244&quot;&gt;2. Методы динамического программирования&amp;nbsp;&lt;/strong&gt;или&lt;/b&gt;&lt;/div&gt;&lt;/span&gt;&lt;b style=&quot;background-color: transparent; color: light-dark(rgb(0, 0, 0), rgb(255, 255, 255)); text-wrap-mode: nowrap;&quot;&gt;&lt;strong data-end=&quot;3322&quot; data-start=&quot;3290&quot;&gt;поиск в пространстве решений&lt;/strong&gt;&lt;/b&gt;&lt;b style=&quot;color: light-dark(rgb(0, 0, 0), rgb(255, 255, 255)); text-wrap-mode: nowrap; background-color: transparent;&quot;&gt;&lt;/b&gt;&lt;/div&gt;" style="html=1;dropTarget=0;whiteSpace=wrap;" vertex="1" parent="1">
          <mxGeometry x="-450" y="900" width="512.5" height="200" as="geometry" />
        </mxCell>
        <mxCell id="zOdYqrqbQJjYuCrktWeD-32" value="" style="shape=module;jettyWidth=8;jettyHeight=4;" vertex="1" parent="zOdYqrqbQJjYuCrktWeD-31">
          <mxGeometry x="1" width="20" height="20" relative="1" as="geometry">
            <mxPoint x="-27" y="7" as="offset" />
          </mxGeometry>
        </mxCell>
        <mxCell id="zOdYqrqbQJjYuCrktWeD-33" value="&lt;div&gt;&lt;br&gt;&lt;/div&gt;Предсказание&lt;br&gt;&lt;b&gt;Методы оптимизации&amp;nbsp;&lt;/b&gt;&lt;br&gt;&lt;div style=&quot;text-align: left;&quot;&gt;&lt;ul&gt;&lt;li&gt;&lt;span style=&quot;background-color: transparent; color: light-dark(rgb(0, 0, 0), rgb(255, 255, 255));&quot;&gt;LSTM, GRU, Transformer (временные ряды)&lt;/span&gt;&lt;/li&gt;&lt;ul&gt;&lt;li data-end=&quot;1734&quot; data-start=&quot;1700&quot;&gt;&lt;strong data-end=&quot;1734&quot; data-start=&quot;1702&quot;&gt;Предсказание временных рядов&lt;/strong&gt;&lt;/li&gt;&lt;li data-end=&quot;1757&quot; data-start=&quot;1735&quot;&gt;&lt;strong data-end=&quot;1757&quot; data-start=&quot;1737&quot;&gt;Машинный перевод&lt;/strong&gt;&lt;/li&gt;&lt;li data-end=&quot;1777&quot; data-start=&quot;1758&quot;&gt;&lt;strong data-end=&quot;1777&quot; data-start=&quot;1760&quot;&gt;Анализ текста&lt;/strong&gt;&lt;/li&gt;&lt;li data-end=&quot;1802&quot; data-start=&quot;1778&quot;&gt;&lt;strong data-end=&quot;1802&quot; data-start=&quot;1780&quot;&gt;Распознавание речи&lt;/strong&gt;&lt;/li&gt;&lt;/ul&gt;&lt;li&gt;&lt;b&gt;Генеративные модели для оптимизации топологии&lt;/b&gt;&lt;/li&gt;&lt;ul&gt;&lt;li&gt;&lt;b&gt;Neural Architecture Search&lt;/b&gt;&lt;/li&gt;&lt;li&gt;&lt;b&gt;Graph Neural Networks&lt;/b&gt;&lt;/li&gt;&lt;/ul&gt;&lt;li&gt;выбор оптимальной топологии двигателей и частотников&lt;/li&gt;&lt;/ul&gt;&lt;/div&gt;&lt;div style=&quot;&quot;&gt;&lt;span style=&quot;font-weight: bold; background-color: transparent; color: light-dark(rgb(0, 0, 0), rgb(255, 255, 255));&quot;&gt;Модели &lt;/span&gt;&lt;span style=&quot;background-color: transparent; color: light-dark(rgb(0, 0, 0), rgb(255, 255, 255));&quot; data-end=&quot;3784&quot; data-start=&quot;3771&quot;&gt;&lt;b&gt;регрессии&lt;/b&gt;&lt;br&gt;&lt;div style=&quot;text-align: left;&quot;&gt;&lt;span style=&quot;background-color: transparent; color: light-dark(rgb(0, 0, 0), rgb(255, 255, 255));&quot; data-end=&quot;1289&quot; data-start=&quot;1278&quot;&gt;XGBoost&lt;/span&gt;&lt;span style=&quot;background-color: transparent; color: light-dark(rgb(0, 0, 0), rgb(255, 255, 255));&quot;&gt;, &lt;/span&gt;&lt;span style=&quot;background-color: transparent; color: light-dark(rgb(0, 0, 0), rgb(255, 255, 255));&quot; data-end=&quot;1303&quot; data-start=&quot;1291&quot;&gt;LightGBM&lt;/span&gt;&lt;span style=&quot;background-color: transparent; color: light-dark(rgb(0, 0, 0), rgb(255, 255, 255));&quot;&gt;, &lt;/span&gt;&lt;span style=&quot;background-color: transparent; color: light-dark(rgb(0, 0, 0), rgb(255, 255, 255));&quot; data-end=&quot;1317&quot; data-start=&quot;1305&quot;&gt;CatBoost&lt;/span&gt;&lt;/div&gt;&lt;/span&gt;&lt;/div&gt;могут помочь предсказать, как изменения в топологии (например, добавление частотников или двигателей) повлияют на эффективность работы системы&lt;div&gt;&lt;br&gt;&lt;br&gt;&lt;b&gt;&lt;/b&gt;&lt;/div&gt;" style="html=1;dropTarget=0;whiteSpace=wrap;" vertex="1" parent="1">
          <mxGeometry x="-450" y="1140" width="520" height="240" as="geometry" />
        </mxCell>
        <mxCell id="zOdYqrqbQJjYuCrktWeD-34" value="" style="shape=module;jettyWidth=8;jettyHeight=4;" vertex="1" parent="zOdYqrqbQJjYuCrktWeD-33">
          <mxGeometry x="1" width="20" height="20" relative="1" as="geometry">
            <mxPoint x="-27" y="7" as="offset" />
          </mxGeometry>
        </mxCell>
      </root>
    </mxGraphModel>
  </diagram>
</mxfile>
